<?xml version="1.0" encoding="utf-8"?>
<!-- Generator: Adobe Illustrator 16.0.0, SVG Export Plug-In . SVG Version: 6.00 Build 0)  -->
<!DOCTYPE svg PUBLIC "-//W3C//DTD SVG 1.1//EN" "http://www.w3.org/Graphics/SVG/1.1/DTD/svg11.dtd">
<svg version="1.1" xmlns="http://www.w3.org/2000/svg" xmlns:xlink="http://www.w3.org/1999/xlink" x="0px" y="0px"
	 width="3098.428px" height="824px" viewBox="0 0 3098.428 824" enable-background="new 0 0 3098.428 824" xml:space="preserve">
<g id="Laag_2">
</g>
<g id="Laag_1">
	<g>
		<path d="M851.115,335.59l0.748,0.046c1.12,0.065,2.811,0.413,5.024,1.036c2.186,0.609,3.765,1.233,4.672,1.84
			c0.914,0.665,1.645,2.092,2.17,4.246c0.557,2.295,0.839,5.635,0.839,9.938v33.48l-41.729-55.904h-23.01v5.324l0.756,0.04
			c1.276,0.065,2.998,0.505,5.116,1.307c2.099,0.788,3.78,1.75,4.989,2.843c0.864,0.795,1.57,1.953,2.101,3.451
			c0.541,1.535,0.815,3.094,0.815,4.627v37.155c0,4.843-0.231,8.301-0.682,10.271c-0.422,1.847-1.196,3.227-2.325,4.119
			c-0.271,0.236-1.149,0.742-3.994,1.508c-2.228,0.603-3.826,0.944-4.747,1.013l-0.736,0.054v5.309h32.91v-5.335l-0.761-0.029
			c-0.529-0.022-1.813-0.218-4.946-1.04c-3.044-0.792-4.271-1.516-4.793-2.01c-1.014-0.873-1.789-2.416-2.302-4.582
			c-0.54-2.258-0.814-5.574-0.814-9.861v-36.521l44.848,59.805l0.239,0.316h5.876V352.01c0-3.797,0.221-6.97,0.659-9.43
			c0.405-2.285,1.172-3.825,2.254-4.568c0.819-0.52,2.243-1.041,4.233-1.553c2.017-0.515,3.519-0.792,4.461-0.823l0.768-0.028
			v-5.336h-32.64V335.59z"/>
		<path d="M962.677,383.481h-5.308l-0.175,0.562c-0.485,1.569-1.633,4.091-3.413,7.493c-1.77,3.375-3.473,5.915-5.063,7.553
			c-0.504,0.529-1.418,0.964-2.718,1.293c-1.415,0.364-2.798,0.616-4.11,0.748c-1.292,0.143-2.911,0.213-4.814,0.213h-4.681
			c-2.941,0-5.223-0.098-6.789-0.285c-1.476-0.182-2.64-0.569-3.454-1.154c-0.784-0.568-1.3-1.394-1.572-2.519
			c-0.309-1.243-0.464-2.982-0.464-5.173v-21.813h7.815c2.238,0,4.053,0.205,5.396,0.607c1.251,0.376,2.394,1.195,3.398,2.445
			c0.621,0.771,1.237,2.074,1.83,3.871c0.607,1.83,0.983,3.583,1.12,5.213l0.063,0.73h5.56v-31.148h-5.535l-0.084,0.703
			c-0.174,1.471-0.535,3.055-1.072,4.713c-0.525,1.622-1.161,2.928-1.878,3.867c-0.881,1.09-1.902,1.877-3.043,2.338
			c-1.169,0.473-3.105,0.711-5.754,0.711h-7.815v-28.389h11.203c1.961,0,3.705,0.036,5.239,0.107
			c1.512,0.067,2.831,0.174,3.912,0.311c1.932,0.254,4.044,1.828,6.285,4.672c2.307,2.933,3.825,5.724,4.514,8.3l0.157,0.592h5.442
			v-19.771h-60.677v5.309l0.738,0.052c0.935,0.071,2.21,0.281,3.792,0.623c1.563,0.339,2.815,0.731,3.738,1.169
			c1.067,0.481,1.764,1.088,2.075,1.801c0.35,0.801,0.527,1.738,0.527,2.791v54.223c0,1.168-0.195,2.135-0.581,2.871
			c-0.364,0.688-1.045,1.268-2.023,1.723c-0.261,0.117-1.032,0.363-3.268,0.649c-1.775,0.228-3.191,0.376-4.256,0.447l-0.743,0.046
			v5.316h64.932L962.677,383.481z"/>
		<path d="M1048.295,386.292c2.488-4.803,3.75-10.543,3.75-17.058c0-7.003-1.313-13.188-3.904-18.376
			c-2.598-5.203-6.231-9.467-10.796-12.678c-3.354-2.41-7.339-4.354-11.846-5.773c-4.505-1.418-9.149-2.135-13.8-2.135h-34.16v5.305
			l0.734,0.056c0.91,0.071,2.003,0.229,3.248,0.468c1.221,0.236,2.369,0.608,3.419,1.109c1.033,0.479,1.723,1.11,2.052,1.877
			c0.37,0.858,0.557,1.841,0.557,2.93v54.434c0,1.137-0.215,2.11-0.632,2.895c-0.403,0.746-1.04,1.299-1.973,1.699
			c-0.313,0.144-1.101,0.363-3.072,0.598c-1.618,0.188-2.951,0.286-3.969,0.286h-0.795v5.364h32.437
			c5.295,0,10.499-0.762,15.46-2.266c4.981-1.508,9.539-3.824,13.546-6.883C1042.537,395.073,1045.814,391.083,1048.295,386.292z
			 M1011.429,401.342c-3.768,0-6.575-0.582-8.337-1.729c-1.676-1.094-2.491-3.064-2.491-6.027v-57.183
			c0.85-0.028,1.967-0.062,3.347-0.101c1.837-0.057,3.487-0.082,4.951-0.082c4.277,0,8.209,0.814,11.694,2.421
			c3.485,1.61,6.464,3.849,8.854,6.65c2.533,2.949,4.492,6.463,5.819,10.435c1.329,3.988,2.005,8.524,2.005,13.479
			c0,5.036-0.506,9.533-1.507,13.369c-0.989,3.79-2.584,7.173-4.738,10.058c-2.027,2.713-4.716,4.863-7.986,6.394
			C1019.754,400.561,1015.846,401.342,1011.429,401.342z"/>
		<path d="M1134.198,383.481h-5.311l-0.173,0.562c-0.484,1.569-1.633,4.091-3.414,7.493c-1.769,3.375-3.472,5.915-5.064,7.553
			c-0.502,0.529-1.416,0.964-2.716,1.293c-1.415,0.364-2.798,0.616-4.11,0.748c-1.292,0.143-2.911,0.213-4.814,0.213h-4.681
			c-2.941,0-5.223-0.098-6.789-0.285c-1.478-0.182-2.64-0.569-3.454-1.154c-0.783-0.568-1.3-1.394-1.573-2.519
			c-0.308-1.243-0.462-2.982-0.462-5.173v-21.813h7.814c2.238,0,4.053,0.205,5.396,0.607c1.249,0.376,2.395,1.195,3.399,2.445
			c0.62,0.775,1.236,2.078,1.829,3.871c0.606,1.83,0.982,3.583,1.12,5.213l0.061,0.73h5.563v-31.148h-5.54l-0.079,0.703
			c-0.175,1.471-0.536,3.055-1.073,4.713c-0.525,1.622-1.16,2.928-1.877,3.867c-0.881,1.09-1.903,1.877-3.044,2.338
			c-1.169,0.473-3.105,0.711-5.754,0.711h-7.814v-28.389h11.202c1.961,0,3.706,0.036,5.238,0.107
			c1.514,0.067,2.832,0.174,3.914,0.311c1.931,0.254,4.043,1.828,6.285,4.672c2.306,2.933,3.824,5.724,4.513,8.3l0.155,0.592h5.444
			v-19.771h-60.677v5.309l0.738,0.052c0.935,0.071,2.21,0.281,3.792,0.623c1.563,0.339,2.816,0.731,3.739,1.169
			c1.064,0.481,1.764,1.088,2.073,1.801c0.351,0.801,0.528,1.738,0.528,2.791v54.223c0,1.168-0.196,2.135-0.582,2.871
			c-0.363,0.688-1.043,1.268-2.023,1.723c-0.26,0.117-1.031,0.363-3.266,0.649c-1.776,0.228-3.193,0.376-4.258,0.447l-0.742,0.046
			v5.316h64.932L1134.198,383.481z"/>
		<path d="M1220.65,401.514c-1.319-0.234-2.425-0.568-3.275-0.989c-1.204-0.612-2.437-1.415-3.663-2.386
			c-1.215-0.966-2.605-2.498-4.134-4.56c-3.625-4.818-6.682-8.909-9.171-12.276c-2.345-3.157-5.24-6.999-8.698-11.533
			c2.334-0.724,4.517-1.583,6.497-2.561c2.316-1.145,4.337-2.523,6.002-4.091c1.835-1.7,3.239-3.745,4.182-6.083
			c0.927-2.316,1.399-5.009,1.399-8.002c0-3.353-0.706-6.27-2.099-8.668c-1.384-2.385-3.264-4.344-5.589-5.823
			c-2.358-1.495-5.033-2.596-7.939-3.269c-2.875-0.663-5.996-1.002-9.275-1.002h-36.044v5.309l0.739,0.052
			c0.973,0.071,2.173,0.237,3.572,0.496c1.387,0.258,2.523,0.54,3.363,0.839c1.112,0.416,1.787,0.976,2.063,1.717
			c0.324,0.859,0.488,1.873,0.488,3.014v54.541c0,1.24-0.211,2.256-0.632,3.018c-0.4,0.734-1.037,1.28-1.96,1.673
			c-0.393,0.173-1.264,0.419-3.185,0.628c-1.625,0.177-2.865,0.301-3.721,0.372l-0.729,0.06v5.303h33.881v-5.34l-0.771-0.024
			c-1.08-0.035-2.429-0.155-4.015-0.368c-1.541-0.201-2.619-0.418-3.205-0.643c-1.09-0.42-1.773-0.983-2.082-1.72
			c-0.351-0.832-0.528-1.829-0.528-2.958v-23.125h6.639c4.189,5.322,8.125,10.556,11.699,15.561
			c3.63,5.08,7.777,11.223,12.319,18.254l0.236,0.363h21.787v-5.337l-0.769-0.027
			C1223.152,401.895,1222.012,401.756,1220.65,401.514z M1172.122,336.221h8.352c4.6,0,8.193,1.268,10.682,3.771
			c2.49,2.504,3.753,5.968,3.753,10.291c0,5.126-1.582,9.226-4.703,12.187c-3.133,2.971-7.115,4.479-11.827,4.479h-6.256V336.221z"
			/>
		<path d="M1297.603,383.27h-5.232l-0.188,0.521c-0.738,2-2.083,4.666-4.002,7.92c-1.927,3.26-3.627,5.713-5.054,7.293
			c-0.408,0.459-1.082,0.86-2.008,1.187c-1.011,0.354-2.134,0.639-3.335,0.839c-1.24,0.209-2.588,0.35-4.003,0.418
			c-1.419,0.071-2.787,0.105-4.103,0.105c-2.902,0-5.181-0.096-6.767-0.285c-1.475-0.175-2.584-0.541-3.272-1.077
			c-0.719-0.589-1.168-1.416-1.366-2.525c-0.224-1.239-0.335-3.022-0.335-5.311v-50.657c0-1.053,0.202-2.059,0.605-2.977
			c0.357-0.824,1.023-1.396,2.03-1.749c0.692-0.235,1.859-0.518,3.37-0.819c1.544-0.311,2.813-0.485,3.773-0.517l0.768-0.028v-5.336
			h-33.827v5.309l0.736,0.052c0.913,0.069,2.102,0.302,3.536,0.694c1.425,0.389,2.541,0.789,3.347,1.202
			c1.039,0.483,1.728,1.097,2.054,1.839c0.368,0.813,0.555,1.777,0.555,2.863v54.008c0,1.24-0.213,2.256-0.632,3.018
			c-0.4,0.734-1.037,1.28-1.96,1.673c-0.393,0.173-1.264,0.419-3.185,0.628c-1.625,0.177-2.865,0.301-3.721,0.372l-0.73,0.06v5.303
			h61.214L1297.603,383.27z"/>
		<path d="M1332.523,401.967l-0.756-0.04c-2.751-0.138-5.247-0.589-7.423-1.34c-1.893-0.654-2.854-1.509-2.854-2.544
			c0-0.553,0.087-1.289,0.258-2.191c0.175-0.922,0.492-2.145,0.945-3.621c0.501-1.558,1.066-3.256,1.69-5.092
			c0.579-1.691,1.328-3.689,2.238-5.947h25.714l6.14,16.406c0.122,0.299,0.213,0.653,0.273,1.045
			c0.066,0.414,0.098,0.766,0.098,1.047c0,0.199-0.461,0.703-2.196,1.205c-1.781,0.512-4.068,0.861-6.798,1.034l-0.746,0.046v5.316
			h33.332v-5.335l-0.764-0.029c-0.839-0.032-1.904-0.213-3.171-0.536c-1.249-0.317-2.263-0.705-2.983-1.141
			c-1.141-0.759-2.039-1.544-2.674-2.33c-0.629-0.787-1.203-1.844-1.71-3.145l-25.452-65.061l-0.195-0.508h-5.391l-0.199,0.504
			c-3.624,9.215-7.751,19.721-12.379,31.523c-4.575,11.667-8.846,22.395-12.694,31.883c-0.723,1.765-1.464,3.164-2.21,4.155
			c-0.735,0.966-1.792,1.915-3.132,2.811c-0.813,0.517-1.893,0.938-3.205,1.253c-1.34,0.322-2.473,0.524-3.372,0.593l-0.733,0.058
			v5.305h30.349V401.967z M1329.12,374.87l10.242-26.299l10.392,26.299H1329.12z"/>
		<path d="M1393.968,336.943c2.097,0.788,3.778,1.75,4.989,2.843c0.864,0.795,1.568,1.953,2.101,3.451
			c0.541,1.535,0.814,3.094,0.814,4.627v37.155c0,4.843-0.23,8.301-0.681,10.271c-0.424,1.847-1.196,3.227-2.324,4.119
			c-0.271,0.236-1.15,0.742-3.995,1.508c-2.228,0.603-3.826,0.944-4.747,1.013l-0.736,0.054v5.309h32.91v-5.335l-0.763-0.029
			c-0.527-0.022-1.811-0.218-4.946-1.04c-3.041-0.792-4.27-1.516-4.791-2.01c-1.014-0.873-1.789-2.416-2.302-4.582
			c-0.54-2.258-0.814-5.574-0.814-9.861v-36.521l44.848,59.805l0.239,0.316h5.875V352.01c0-3.797,0.222-6.97,0.66-9.43
			c0.406-2.285,1.17-3.825,2.254-4.568c0.819-0.52,2.243-1.041,4.233-1.553c2.017-0.515,3.519-0.792,4.461-0.823l0.768-0.028v-5.336
			h-32.64v5.318l0.748,0.046c1.12,0.065,2.811,0.413,5.024,1.036c2.184,0.609,3.765,1.233,4.672,1.84
			c0.914,0.665,1.645,2.092,2.17,4.246c0.557,2.295,0.839,5.635,0.839,9.938v33.48l-41.73-55.904h-23.008v5.324l0.756,0.04
			C1390.128,335.702,1391.85,336.141,1393.968,336.943z"/>
		<path d="M1546.332,398.143c3.986-3.07,7.266-7.06,9.746-11.852c2.486-4.803,3.75-10.543,3.75-17.058
			c0-7.003-1.315-13.188-3.906-18.376c-2.598-5.203-6.231-9.467-10.795-12.678c-3.354-2.41-7.34-4.354-11.847-5.773
			c-4.505-1.418-9.148-2.135-13.799-2.135h-34.159v5.305l0.732,0.056c0.91,0.071,2.003,0.229,3.248,0.468
			c1.224,0.236,2.369,0.608,3.42,1.109c1.032,0.479,1.723,1.11,2.051,1.877c0.37,0.858,0.557,1.841,0.557,2.93v54.434
			c0,1.137-0.215,2.11-0.63,2.895c-0.405,0.746-1.041,1.299-1.975,1.699c-0.313,0.144-1.101,0.363-3.07,0.598
			c-1.62,0.188-2.953,0.286-3.971,0.286h-0.795v5.364h32.438c5.294,0,10.498-0.762,15.46-2.266
			C1537.769,403.518,1542.325,401.202,1546.332,398.143z M1519.21,401.342c-3.768,0-6.574-0.582-8.337-1.729
			c-1.676-1.094-2.489-3.064-2.489-6.027v-57.183c0.849-0.028,1.965-0.062,3.345-0.101c1.837-0.057,3.487-0.082,4.953-0.082
			c4.277,0,8.209,0.814,11.692,2.421c3.485,1.61,6.464,3.849,8.854,6.65c2.533,2.949,4.492,6.463,5.819,10.435
			c1.33,3.988,2.005,8.524,2.005,13.479c0,5.036-0.506,9.533-1.507,13.369c-0.99,3.79-2.584,7.173-4.738,10.058
			c-2.025,2.713-4.715,4.863-7.984,6.394C1527.535,400.561,1523.627,401.342,1519.21,401.342z"/>
		<path d="M1629.979,385.075c0-2.878-0.4-5.449-1.203-7.637c-0.802-2.193-2.059-4.241-3.747-6.094
			c-1.514-1.604-3.318-3.03-5.366-4.233c-2.01-1.178-4.134-2.251-6.302-3.181c-2.396-1.038-4.887-2.017-7.396-2.915
			c-2.523-0.901-5.095-1.976-7.651-3.188c-2.806-1.316-4.966-3.011-6.42-5.032c-1.434-1.998-2.163-4.568-2.163-7.643
			c0-2.91,1.095-5.308,3.343-7.33c2.274-2.043,4.95-3.037,8.185-3.037c3.077,0,5.701,0.584,7.798,1.733
			c2.107,1.16,3.929,2.741,5.391,4.698c1.524,2.048,2.784,4.38,3.744,6.926c0.977,2.596,1.866,5.346,2.641,8.172l0.164,0.585h5.771
			l-0.457-26.628h-5.537l-2.023,3.319c-2.156-1.271-4.529-2.405-7.065-3.376c-2.857-1.096-6.13-1.648-9.728-1.648
			c-3.16,0-6.241,0.545-9.151,1.621c-2.917,1.074-5.485,2.582-7.626,4.482c-2.259,2.007-4.023,4.329-5.248,6.894
			c-1.229,2.575-1.853,5.387-1.853,8.366c0,5.157,1.26,9.406,3.743,12.629c2.453,3.19,5.936,5.803,10.338,7.759
			c2.201,0.995,4.847,2.064,7.854,3.173c3.012,1.109,5.677,2.123,8.004,3.036c3.235,1.28,5.701,3.177,7.32,5.632
			c1.629,2.465,2.452,5.154,2.452,7.998c0,1.963-0.265,3.713-0.784,5.195c-0.517,1.461-1.315,2.748-2.373,3.83
			c-1.063,1.08-2.471,1.927-4.189,2.52c-1.749,0.607-3.842,0.914-6.225,0.914c-3.165,0-5.966-0.597-8.335-1.773
			c-2.395-1.191-4.512-2.811-6.299-4.814c-1.908-2.162-3.471-4.521-4.637-7.014c-1.172-2.503-2.215-5.365-3.104-8.514l-0.161-0.582
			h-5.78l0.799,27.428h5.529l2.143-3.592c2.372,1.343,5.167,2.512,8.314,3.477c3.461,1.062,6.981,1.603,10.456,1.603
			c7.554,0,13.978-2.247,19.085-6.679C1627.373,397.693,1629.979,391.948,1629.979,385.075z"/>
		<path d="M1656.088,398.538c3.289,3.398,7.113,6.037,11.363,7.84c4.257,1.805,8.764,2.721,13.404,2.721
			c7.139,0,13.397-1.66,18.601-4.932c5.205-3.284,9.434-8.803,12.57-16.396l0.283-0.699l-5.507-2.611l-0.299,0.818
			c-0.834,2.266-1.923,4.389-3.241,6.31c-1.32,1.917-2.865,3.658-4.582,5.153c-1.709,1.422-3.769,2.584-6.112,3.453
			c-2.335,0.867-4.938,1.308-7.731,1.308c-3.713,0-7.124-0.827-10.129-2.456c-3.021-1.643-5.674-3.948-7.886-6.854
			c-2.229-2.966-3.97-6.454-5.171-10.371c-1.207-3.923-1.819-8.309-1.819-13.036c0-5.37,0.588-10.293,1.744-14.639
			c1.151-4.316,2.756-7.914,4.766-10.697c2.1-2.859,4.619-5.051,7.483-6.516c2.865-1.46,6.008-2.199,9.345-2.199
			c2.884,0,5.48,0.652,7.717,1.939c2.251,1.297,4.229,3.127,5.883,5.439c1.485,2.059,2.809,4.616,3.924,7.602
			c1.127,3.01,1.985,5.847,2.552,8.42l0.14,0.625h5.86l-0.517-28.486h-5.533l-2.027,3.325c-2.598-1.499-5.358-2.695-8.209-3.56
			c-3.104-0.938-6.619-1.414-10.439-1.414c-5.14,0-10.041,0.988-14.565,2.938c-4.525,1.948-8.503,4.754-11.825,8.328
			c-3.354,3.605-6.014,7.961-7.901,12.944c-1.892,4.979-2.852,10.597-2.852,16.692c0,6.1,0.98,11.662,2.906,16.544
			C1650.211,390.948,1652.835,395.141,1656.088,398.538z"/>
		<path d="M1782.636,399.423c-0.418,0.716-1.063,1.24-2.02,1.62c-0.359,0.168-1.192,0.4-3.095,0.565l-4.466,0.38v5.303h33.284
			v-5.335l-0.764-0.029c-0.829-0.032-2.027-0.206-3.558-0.517c-1.487-0.306-2.51-0.6-3.044-0.883
			c-1.059-0.553-1.768-1.184-2.103-1.875c-0.356-0.74-0.542-1.679-0.542-2.788v-54.382c0-1.053,0.193-2.042,0.563-2.937
			c0.32-0.78,0.97-1.328,1.969-1.679c0.694-0.236,1.754-0.493,3.149-0.768c1.421-0.277,2.617-0.433,3.563-0.464l0.767-0.028v-5.336
			h-33.284v5.309l0.739,0.052c0.957,0.069,2.114,0.277,3.435,0.616c1.336,0.342,2.473,0.734,3.387,1.172
			c0.99,0.461,1.658,1.061,2.049,1.84c0.405,0.824,0.614,1.75,0.614,2.756v22.061h-34.301v-22.594c0-1.057,0.188-2.043,0.561-2.937
			c0.318-0.78,0.968-1.328,1.973-1.679c0.687-0.236,1.748-0.493,3.146-0.768c1.416-0.277,2.612-0.433,3.563-0.464l0.768-0.028
			v-5.336H1725.7v5.309l0.739,0.052c0.955,0.069,2.114,0.277,3.436,0.616c1.33,0.34,2.468,0.734,3.39,1.172
			c0.987,0.457,1.652,1.061,2.043,1.838c0.408,0.83,0.617,1.76,0.617,2.758v54.434c0,1.233-0.215,2.234-0.645,2.974
			c-0.418,0.719-1.061,1.24-2.013,1.62c-0.366,0.168-1.201,0.404-3.098,0.565l-4.47,0.38v5.303h33.288v-5.335l-0.764-0.029
			c-0.835-0.032-2.031-0.206-3.56-0.517c-1.485-0.306-2.509-0.6-3.045-0.883c-1.062-0.553-1.766-1.184-2.104-1.875
			c-0.355-0.736-0.537-1.675-0.537-2.788v-25.466h34.301v26.051C1783.279,397.683,1783.062,398.684,1782.636,399.423z"/>
		<path d="M1889.84,383.481h-5.31l-0.173,0.562c-0.488,1.569-1.632,4.091-3.414,7.493c-1.771,3.375-3.473,5.915-5.063,7.553
			c-0.503,0.529-1.416,0.964-2.718,1.293c-1.414,0.364-2.798,0.616-4.109,0.748c-1.291,0.143-2.914,0.213-4.815,0.213h-4.682
			c-2.939,0-5.221-0.098-6.786-0.285c-1.479-0.182-2.642-0.569-3.455-1.154c-0.785-0.568-1.301-1.394-1.572-2.519
			c-0.308-1.243-0.465-2.982-0.465-5.173v-21.813h7.815c2.239,0,4.055,0.205,5.396,0.607c1.25,0.376,2.395,1.195,3.399,2.445
			c0.62,0.771,1.234,2.074,1.828,3.871c0.607,1.83,0.983,3.583,1.12,5.213l0.063,0.73h5.562v-31.148h-5.537l-0.084,0.703
			c-0.175,1.471-0.533,3.055-1.07,4.713c-0.527,1.622-1.162,2.928-1.881,3.867c-0.88,1.09-1.902,1.877-3.042,2.338
			c-1.169,0.473-3.106,0.711-5.754,0.711h-7.815v-28.389h11.203c1.961,0,3.705,0.036,5.237,0.107
			c1.513,0.067,2.833,0.174,3.915,0.311c1.93,0.254,4.043,1.828,6.286,4.672c2.307,2.933,3.825,5.724,4.511,8.3l0.158,0.592h5.442
			v-19.771h-60.678v5.309l0.736,0.052c0.939,0.071,2.213,0.281,3.793,0.623c1.566,0.339,2.818,0.731,3.739,1.169
			c1.068,0.481,1.763,1.088,2.077,1.801c0.35,0.801,0.526,1.738,0.526,2.791v54.223c0,1.168-0.195,2.135-0.582,2.871
			c-0.363,0.688-1.044,1.268-2.024,1.723c-0.257,0.117-1.029,0.363-3.266,0.649c-1.776,0.228-3.192,0.376-4.257,0.447l-0.743,0.046
			v5.316h64.935L1889.84,383.481z"/>
		<g>
			<path d="M1994.958,405.987c3.101-0.871,5.924-2.158,8.381-3.828c2.561-1.722,4.667-3.952,6.269-6.631
				c1.609-2.697,2.426-5.912,2.426-9.551c0-3.568-0.781-6.659-2.324-9.184c-1.524-2.5-3.469-4.551-5.768-6.082
				c-2.17-1.529-4.678-2.738-7.46-3.594c-1.688-0.52-3.289-0.927-4.786-1.225c1.56-0.457,3.05-1.011,4.452-1.652
				c2.191-0.998,4.165-2.243,5.865-3.705c1.839-1.557,3.282-3.447,4.291-5.611c1.016-2.169,1.532-4.668,1.532-7.433
				c0-3.186-0.733-5.94-2.174-8.19c-1.428-2.223-3.269-4.011-5.48-5.303c-2.317-1.387-4.798-2.366-7.373-2.912
				c-2.529-0.543-5.219-0.814-7.997-0.814h-36.037v5.303l0.731,0.058c0.858,0.069,1.947,0.243,3.231,0.517
				c1.256,0.271,2.411,0.66,3.438,1.165c1.035,0.485,1.727,1.102,2.055,1.839c0.366,0.816,0.555,1.781,0.555,2.863v54.223
				c0,1.161-0.203,2.112-0.6,2.822c-0.382,0.68-1.055,1.236-1.997,1.654c-0.651,0.291-1.775,0.549-3.339,0.767
				c-1.632,0.231-2.872,0.376-3.722,0.447l-0.73,0.06v5.303h36.957C1988.636,407.292,1991.866,406.854,1994.958,405.987z
				 M1992.474,354.75c-0.482,1.682-1.36,3.268-2.6,4.703c-1.196,1.38-2.791,2.432-4.741,3.128c-2,0.712-4.448,1.073-7.278,1.073
				h-6.019v-27.459l3.601-0.107c1.73-0.055,3.157-0.079,4.3-0.079c4.695,0,8.148,1.109,10.271,3.3
				c2.132,2.197,3.212,5.295,3.212,9.215C1993.22,350.922,1992.969,353.016,1992.474,354.75z M1971.836,369.731
				c0.723-0.029,1.65-0.062,2.781-0.102c1.57-0.055,3.496-0.078,5.784-0.078c5.394,0,9.58,1.375,12.448,4.087
				c2.893,2.735,4.299,6.146,4.299,10.427c0,5.753-1.359,10.15-4.04,13.068c-2.665,2.896-6.595,4.368-11.685,4.368
				c-3.102,0-5.53-0.532-7.219-1.582c-1.598-0.985-2.369-2.419-2.369-4.376V369.731z"/>
			<path d="M2092.938,383.481h-5.311l-0.175,0.562c-0.484,1.569-1.632,4.091-3.412,7.493c-1.768,3.375-3.476,5.915-5.065,7.553
				c-0.503,0.529-1.417,0.964-2.714,1.293c-1.416,0.364-2.799,0.616-4.111,0.748c-1.294,0.143-2.913,0.213-4.814,0.213h-4.682
				c-2.941,0-5.224-0.098-6.79-0.285c-1.476-0.182-2.638-0.569-3.455-1.154c-0.781-0.568-1.297-1.394-1.572-2.519
				c-0.307-1.243-0.464-2.982-0.464-5.173v-21.813h7.814c2.24,0,4.055,0.205,5.397,0.607c1.249,0.376,2.394,1.195,3.398,2.445
				c0.62,0.775,1.235,2.078,1.831,3.871c0.604,1.83,0.98,3.583,1.117,5.213l0.063,0.73h5.561v-31.148h-5.54l-0.08,0.703
				c-0.174,1.471-0.534,3.055-1.071,4.713c-0.527,1.622-1.159,2.928-1.878,3.867c-0.879,1.09-1.904,1.877-3.041,2.338
				c-1.172,0.473-3.109,0.711-5.758,0.711h-7.814v-28.389h11.207c1.96,0,3.704,0.036,5.236,0.107
				c1.515,0.067,2.829,0.174,3.911,0.311c1.933,0.254,4.047,1.828,6.286,4.672c2.308,2.933,3.825,5.724,4.517,8.3l0.152,0.592h5.442
				v-19.771h-60.672v5.309l0.734,0.052c0.936,0.071,2.209,0.281,3.793,0.623c1.564,0.339,2.816,0.731,3.741,1.169
				c1.063,0.481,1.762,1.088,2.072,1.801c0.352,0.801,0.527,1.738,0.527,2.791v54.223c0,1.168-0.196,2.135-0.581,2.871
				c-0.366,0.688-1.046,1.268-2.022,1.723c-0.262,0.117-1.033,0.363-3.27,0.649c-1.772,0.228-3.193,0.376-4.253,0.447l-0.742,0.046
				v5.316h64.929L2092.938,383.481z"/>
			<path d="M2110.443,351.742c0.311-1.114,0.876-2.567,1.679-4.317c0.806-1.747,1.744-3.416,2.791-4.964
				c1.036-1.536,2.188-2.937,3.426-4.157c1.134-1.125,2.219-1.756,3.22-1.877c1.473-0.174,3.047-0.285,4.666-0.338
				c1.64-0.055,3.01-0.079,4.121-0.079h2.322v60.015c0,1.289-0.24,2.314-0.703,3.053c-0.477,0.732-1.205,1.284-2.242,1.684
				c-0.495,0.201-1.604,0.492-4.061,0.742c-2.055,0.212-3.579,0.355-4.577,0.427l-0.739,0.054v5.309h37.646v-5.34l-0.772-0.024
				c-1.082-0.032-2.654-0.259-4.679-0.675c-2.019-0.418-3.346-0.744-3.914-0.963c-1.092-0.461-1.825-1.08-2.24-1.892
				c-0.449-0.87-0.667-1.806-0.667-2.854v-59.534h2.331c1.432,0,2.984,0.036,4.661,0.106c1.657,0.068,3.05,0.172,4.12,0.307
				c1.02,0.152,2.116,0.787,3.268,1.891c1.229,1.176,2.376,2.57,3.418,4.145c1.013,1.514,1.947,3.151,2.774,4.873
				c0.823,1.701,1.396,3.182,1.703,4.395l0.149,0.602h5.129v-22.055h-68.158v22.055h5.167L2110.443,351.742z"/>
			<path d="M2200.938,400.587c-1.891-0.654-2.854-1.509-2.854-2.544c0-0.553,0.087-1.289,0.259-2.191
				c0.174-0.922,0.492-2.145,0.945-3.621c0.502-1.558,1.068-3.256,1.691-5.092c0.576-1.691,1.326-3.689,2.236-5.947h25.714
				l6.142,16.406c0.122,0.299,0.209,0.653,0.271,1.045c0.066,0.414,0.099,0.766,0.099,1.047c0,0.199-0.462,0.703-2.194,1.205
				c-1.783,0.512-4.069,0.861-6.801,1.034l-0.743,0.046v5.316h33.33v-5.335l-0.764-0.029c-0.838-0.032-1.905-0.213-3.173-0.536
				c-1.247-0.317-2.26-0.705-2.981-1.141c-1.142-0.76-2.037-1.544-2.673-2.33c-0.628-0.787-1.203-1.844-1.71-3.145l-25.452-65.061
				l-0.199-0.508h-5.386l-0.199,0.504c-3.626,9.215-7.753,19.721-12.38,31.523c-4.577,11.672-8.847,22.401-12.695,31.883
				c-0.723,1.765-1.465,3.164-2.209,4.155c-0.735,0.966-1.793,1.915-3.133,2.811c-0.813,0.517-1.892,0.938-3.204,1.253
				c-1.339,0.322-2.473,0.524-3.373,0.593l-0.732,0.058v5.305h30.347v-5.324l-0.754-0.04
				C2205.609,401.79,2203.113,401.338,2200.938,400.587z M2205.714,374.87l10.241-26.299l10.392,26.299H2205.714z"/>
			<path d="M2283.361,400.587c-1.896-0.654-2.854-1.509-2.854-2.544c0-0.553,0.087-1.289,0.258-2.191
				c0.175-0.922,0.491-2.145,0.945-3.621c0.5-1.558,1.063-3.256,1.692-5.092c0.575-1.691,1.326-3.689,2.236-5.947h25.714
				l6.142,16.406c0.117,0.299,0.209,0.653,0.271,1.045c0.066,0.414,0.099,0.766,0.099,1.047c0,0.199-0.462,0.703-2.196,1.205
				c-1.781,0.512-4.071,0.861-6.8,1.034l-0.747,0.046v5.316h33.335v-5.335l-0.764-0.029c-0.842-0.032-1.906-0.213-3.173-0.536
				c-1.249-0.317-2.261-0.705-2.981-1.141c-1.143-0.759-2.043-1.544-2.674-2.33c-0.627-0.787-1.203-1.844-1.709-3.145
				l-25.455-65.061l-0.196-0.508h-5.391l-0.2,0.504c-3.623,9.215-7.747,19.721-12.374,31.523
				c-4.577,11.667-8.849,22.395-12.696,31.883c-0.722,1.765-1.466,3.164-2.212,4.155c-0.733,0.966-1.79,1.915-3.13,2.811
				c-0.813,0.517-1.891,0.938-3.203,1.253c-1.339,0.322-2.478,0.524-3.373,0.593l-0.733,0.058v5.305h30.348v-5.324l-0.754-0.04
				C2288.033,401.79,2285.538,401.338,2283.361,400.587z M2288.135,374.87l10.243-26.299l10.394,26.299H2288.135z"/>
			<path d="M2414.042,383.27h-5.241l-0.194,0.525c-0.719,1.984-2.063,4.648-3.985,7.912c-1.984,3.346-3.639,5.73-5.062,7.299
				c-0.405,0.457-1.079,0.855-2.007,1.185c-1.008,0.354-2.132,0.639-3.336,0.839c-1.234,0.207-2.582,0.35-3.998,0.418
				c-1.416,0.071-2.785,0.105-4.104,0.105c-2.909,0-5.185-0.096-6.768-0.285c-1.477-0.175-2.582-0.541-3.271-1.078
				c-0.726-0.588-1.167-1.412-1.363-2.527c-0.229-1.264-0.346-3.047-0.346-5.308v-50.657c0-1.063,0.206-2.06,0.617-2.977
				c0.357-0.824,1.022-1.396,2.03-1.749c0.674-0.231,1.805-0.509,3.363-0.819c1.544-0.311,2.813-0.485,3.775-0.517l0.769-0.028
				v-5.336h-33.829v5.309l0.736,0.052c0.912,0.069,2.104,0.302,3.533,0.694c1.428,0.389,2.543,0.789,3.351,1.202
				c1.035,0.483,1.727,1.097,2.055,1.839c0.366,0.813,0.552,1.777,0.552,2.863v54.008c0,1.24-0.209,2.256-0.633,3.018
				c-0.396,0.734-1.036,1.28-1.961,1.673c-0.391,0.173-1.262,0.419-3.182,0.628c-1.625,0.177-2.868,0.301-3.722,0.372l-0.729,0.06
				v5.303h61.219L2414.042,383.27z"/>
		</g>
		<path d="M847.994,490.452l0.637,0.133c2.863,0.586,5.145,1.211,6.779,1.849c1.999,0.792,1.999,1.661,1.999,1.947
			c0,2.435-0.648,5.317-1.928,8.555c-1.189,3.015-2.847,6.253-4.932,9.649c-2.809-3.354-5.699-6.754-8.609-10.09
			c-3.015-3.457-6.139-7.333-9.297-11.512c4.362-2.373,7.868-5.063,10.437-8.019c2.781-3.196,4.19-7.069,4.19-11.493
			c0-1.863-0.353-3.747-1.045-5.596c-0.703-1.863-1.726-3.531-3.046-4.947c-1.443-1.529-3.318-2.785-5.572-3.721
			c-2.25-0.941-4.898-1.416-7.868-1.416c-2.523,0-5.034,0.405-7.459,1.207c-2.447,0.803-4.564,1.947-6.296,3.385
			c-1.868,1.595-3.337,3.479-4.366,5.61c-1.036,2.128-1.562,4.508-1.562,7.069c0,3.568,0.854,6.83,2.531,9.699
			c1.516,2.603,3.638,5.707,6.306,9.225c-6.091,3.88-10.35,7.623-12.663,11.13c-2.424,3.671-3.655,7.837-3.655,12.366
			c0,3.648,0.68,6.852,2.026,9.502c1.34,2.651,3.115,4.852,5.278,6.546c2.22,1.717,4.716,2.987,7.42,3.769
			c2.671,0.781,5.41,1.179,8.135,1.179c2.623,0,4.944-0.32,6.889-0.942c1.928-0.614,3.871-1.48,5.785-2.575
			c1.713-0.998,3.376-2.227,4.944-3.629c1.292-1.157,2.473-2.289,3.511-3.369l7.678,8.652h23.324v-5.331l-0.765-0.035
			c-1.604-0.057-3.739-0.377-6.341-0.936c-2.543-0.544-4.517-1.214-5.856-1.975c-1.419-0.858-3.163-2.274-5.183-4.222
			c-1.853-1.787-3.464-3.469-4.791-5.01c1.605-2.066,2.941-4.152,3.977-6.211c1.112-2.197,2.206-4.438,3.286-6.712
			c1.074-2.276,1.999-4.239,2.767-5.903c0.739-1.599,1.467-2.807,2.185-3.608c1.041-1.288,2.574-2.251,4.56-2.854
			c2.094-0.635,4.194-1.047,6.244-1.218l0.726-0.063v-5.304h-30.379V490.452z M829.353,486.538
			c-2.465-3.245-4.324-6.064-5.524-8.389c-1.229-2.375-1.85-4.744-1.85-7.051c0-0.806,0.151-1.755,0.453-2.815
			c0.295-1.04,0.778-2.027,1.421-2.925c0.726-0.941,1.609-1.736,2.627-2.354c0.977-0.59,2.245-0.891,3.771-0.891
			c2.747,0,4.796,0.852,6.257,2.609c1.48,1.773,2.229,4.404,2.229,7.809c0,3.018-0.773,5.684-2.3,7.92
			C834.976,482.608,832.594,484.653,829.353,486.538z M816.982,502.656c1.052-2.337,2.817-4.421,5.26-6.217
			c2.475,3.343,5.701,7.386,9.606,12.03c3.988,4.759,7.643,9.211,10.867,13.236c-1.468,1.773-3.323,3.154-5.522,4.132
			c-2.418,1.067-4.906,1.604-7.399,1.604c-4.405,0-7.959-1.508-10.569-4.48c-2.637-3.006-3.973-6.867-3.973-11.465
			C815.252,508.19,815.836,505.217,816.982,502.656z"/>
		<path d="M990.366,462.903l0.733,0.055c3.621,0.276,6.248,0.803,7.808,1.57c2.059,1.012,2.059,1.996,2.059,2.316
			c0,0.811-0.106,1.809-0.311,2.973c-0.215,1.215-0.752,3.476-1.605,6.721c-1.224,4.689-2.783,10.369-4.637,16.893
			c-1.697,5.967-3.689,12.848-5.978,20.648l-18.611-55.419h-6.407l-18.423,54.212c-3.773-13.139-6.654-23.097-8.627-29.88
			c-2.13-7.313-3.563-12.364-4.364-15.4c-0.072-0.354-0.163-0.816-0.268-1.392c-0.096-0.523-0.146-0.952-0.146-1.267
			c0-0.46,0.836-0.903,2.238-1.189c1.875-0.38,4.181-0.646,6.851-0.786l0.755-0.041v-5.324h-32.716v5.303l0.732,0.063
			c0.922,0.07,1.972,0.252,3.121,0.539c1.133,0.285,2.079,0.693,2.906,1.248c0.989,0.645,1.779,1.374,2.354,2.143
			c0.568,0.774,1.009,1.675,1.303,2.676l7.642,26.813c3.801,13.344,7.479,26.217,11.032,38.623l0.164,0.58h5.919l19.456-56.417
			l18.537,55.865l0.18,0.552h6.114l0.175-0.56c3.911-12.371,7.55-24.018,10.925-34.956c3.374-10.931,6.333-20.49,8.877-28.676
			c0.546-1.713,1.184-3.057,1.896-3.984c0.708-0.924,1.654-1.765,2.814-2.477c0.939-0.565,1.987-1.033,3.112-1.389
			c1.109-0.349,2.089-0.544,2.915-0.58l0.763-0.027v-5.338h-29.288V462.903z"/>
		<path d="M1034.584,462.903l0.741,0.055c1.02,0.07,2.327,0.294,3.885,0.65c1.599,0.365,2.926,0.756,3.955,1.161
			c1.245,0.485,2.063,1.071,2.366,1.7c0.341,0.718,0.514,1.652,0.514,2.77v54.645c0,1.248-0.227,2.218-0.672,2.874
			c-0.442,0.664-1.186,1.194-2.206,1.585c-0.672,0.258-1.898,0.453-3.649,0.594l-4.934,0.376v5.304h35.977v-5.339l-0.771-0.027
			c-1.136-0.036-2.551-0.218-4.204-0.545c-1.641-0.32-2.841-0.621-3.527-0.878c-1.106-0.468-1.854-1.062-2.286-1.822
			c-0.446-0.774-0.673-1.689-0.673-2.707v-54.592c0-1.044,0.207-1.996,0.617-2.845c0.369-0.757,1.109-1.298,2.266-1.657
			c1.102-0.338,2.42-0.624,3.917-0.848c1.521-0.23,2.833-0.359,3.892-0.398l0.77-0.021v-5.345h-35.977V462.903z"/>
		<path d="M1141.323,498.672c-1.505-1.599-3.309-3.021-5.364-4.236c-2.019-1.186-4.142-2.254-6.305-3.175
			c-2.438-1.058-4.929-2.041-7.396-2.924c-2.468-0.876-5.044-1.954-7.651-3.183c-2.811-1.325-4.971-3.014-6.418-5.037
			c-1.438-1.996-2.165-4.564-2.165-7.641c0-2.91,1.096-5.308,3.343-7.328c2.274-2.041,4.952-3.035,8.185-3.035
			c3.083,0,5.705,0.586,7.797,1.734c2.11,1.154,3.925,2.738,5.393,4.689c1.525,2.051,2.785,4.382,3.743,6.932
			c0.976,2.59,1.865,5.338,2.644,8.168l0.159,0.583h5.772l-0.456-26.628h-5.535l-2.024,3.328c-2.157-1.277-4.53-2.406-7.066-3.377
			c-2.851-1.096-6.123-1.646-9.726-1.646c-3.169,0-6.246,0.543-9.155,1.618c-2.919,1.075-5.487,2.582-7.625,4.479
			c-2.258,2.01-4.023,4.326-5.248,6.895c-1.229,2.575-1.853,5.395-1.853,8.371c0,5.152,1.26,9.398,3.742,12.627
			c2.464,3.195,5.943,5.805,10.34,7.759c2.188,0.987,4.83,2.058,7.852,3.167c3.009,1.117,5.677,2.122,8.005,3.044
			c3.236,1.276,5.701,3.173,7.32,5.624c1.63,2.469,2.453,5.164,2.453,8.003c0,1.962-0.264,3.712-0.787,5.191
			c-0.516,1.46-1.314,2.757-2.374,3.831c-1.052,1.075-2.46,1.926-4.187,2.52c-1.749,0.614-3.844,0.915-6.225,0.915
			c-3.157,0-5.963-0.594-8.337-1.773c-2.4-1.193-4.52-2.819-6.294-4.815c-1.912-2.156-3.474-4.521-4.639-7.005
			c-1.174-2.519-2.219-5.388-3.104-8.527l-0.163-0.579h-5.781l0.803,27.43h5.526l2.144-3.594c2.376,1.348,5.167,2.514,8.313,3.477
			c3.467,1.067,6.985,1.605,10.459,1.605c7.55,0,13.972-2.24,19.087-6.679c5.144-4.458,7.752-10.209,7.752-17.082
			c0-2.875-0.405-5.441-1.207-7.633C1144.268,502.569,1143.011,500.521,1141.323,498.672z"/>
		<path d="M1217.041,498.672c-1.504-1.599-3.308-3.021-5.366-4.236c-2.017-1.186-4.14-2.254-6.303-3.175
			c-2.438-1.058-4.929-2.041-7.395-2.924c-2.469-0.876-5.044-1.954-7.652-3.183c-2.811-1.325-4.97-3.014-6.418-5.037
			c-1.438-1.996-2.165-4.564-2.165-7.641c0-2.91,1.096-5.308,3.343-7.328c2.275-2.041,4.952-3.035,8.186-3.035
			c3.082,0,5.704,0.586,7.796,1.734c2.111,1.154,3.926,2.738,5.393,4.689c1.526,2.051,2.786,4.382,3.743,6.932
			c0.976,2.59,1.865,5.338,2.642,8.168l0.162,0.583h5.772l-0.457-26.628h-5.535l-2.023,3.328c-2.158-1.277-4.53-2.406-7.067-3.377
			c-2.851-1.096-6.123-1.646-9.725-1.646c-3.169,0-6.246,0.543-9.156,1.618c-2.918,1.075-5.486,2.582-7.625,4.479
			c-2.257,2.01-4.022,4.326-5.248,6.895c-1.228,2.575-1.852,5.395-1.852,8.371c0,5.152,1.259,9.398,3.742,12.627
			c2.463,3.195,5.942,5.805,10.339,7.759c2.189,0.987,4.83,2.058,7.853,3.167c3.009,1.117,5.677,2.122,8.006,3.044
			c3.235,1.276,5.7,3.173,7.319,5.624c1.63,2.469,2.453,5.164,2.453,8.003c0,1.962-0.264,3.712-0.787,5.191
			c-0.517,1.46-1.315,2.757-2.374,3.831c-1.052,1.075-2.46,1.926-4.188,2.52c-1.746,0.614-3.842,0.915-6.223,0.915
			c-3.158,0-5.963-0.594-8.338-1.773c-2.399-1.193-4.52-2.819-6.294-4.815c-1.911-2.156-3.474-4.521-4.638-7.005
			c-1.177-2.519-2.22-5.388-3.105-8.527l-0.163-0.579h-5.781l0.803,27.43h5.526l2.145-3.594c2.376,1.348,5.167,2.514,8.313,3.477
			c3.466,1.067,6.985,1.605,10.458,1.605c7.551,0,13.972-2.24,19.087-6.679c5.145-4.458,7.752-10.209,7.752-17.082
			c0-2.875-0.404-5.441-1.207-7.633C1219.984,502.569,1218.729,500.521,1217.041,498.672z"/>
		<path d="M1304.224,511.365c-0.484,1.584-1.636,4.097-3.413,7.502c-1.762,3.363-3.467,5.896-5.064,7.55
			c-0.501,0.522-1.413,0.955-2.716,1.297c-1.396,0.355-2.779,0.608-4.11,0.748c-1.273,0.139-2.895,0.209-4.815,0.209h-4.68
			c-2.913,0-5.199-0.104-6.794-0.286c-1.47-0.176-2.628-0.566-3.451-1.159c-0.782-0.558-1.295-1.388-1.572-2.52
			c-0.308-1.241-0.463-2.979-0.463-5.162v-21.818h7.815c2.251,0,4.063,0.207,5.396,0.611c1.247,0.37,2.391,1.193,3.398,2.442
			c0.617,0.774,1.233,2.077,1.83,3.866c0.607,1.828,0.982,3.58,1.12,5.22l0.062,0.726h5.561v-31.15h-5.538l-0.081,0.705
			c-0.174,1.466-0.535,3.049-1.072,4.717c-0.525,1.623-1.164,2.931-1.877,3.859c-0.887,1.103-1.91,1.885-3.045,2.338
			c-1.169,0.474-3.105,0.719-5.753,0.719h-7.815v-28.387h11.204c1.96,0,3.704,0.035,5.24,0.105c1.51,0.065,2.829,0.174,3.91,0.307
			c1.934,0.258,4.048,1.828,6.286,4.675c2.306,2.931,3.827,5.722,4.513,8.297l0.155,0.589h5.445v-19.771h-60.678v5.303l0.734,0.063
			c0.945,0.07,2.223,0.28,3.796,0.622c1.555,0.339,2.809,0.736,3.742,1.179c1.063,0.475,1.76,1.082,2.07,1.787
			c0.352,0.809,0.529,1.751,0.529,2.798v54.22c0,1.178-0.197,2.141-0.585,2.866c-0.36,0.691-1.041,1.271-2.021,1.731
			c-0.314,0.14-1.134,0.37-3.266,0.642c-1.863,0.238-3.255,0.391-4.254,0.447l-0.746,0.056v5.311h64.933l1.554-23.809h-5.311
			L1304.224,511.365z"/>
		<path d="M1387.274,511.121c-0.736,1.995-2.083,4.661-4,7.919c-1.928,3.26-3.629,5.708-5.056,7.293
			c-0.41,0.468-1.083,0.865-2.005,1.187c-1.01,0.355-2.135,0.636-3.335,0.845c-1.277,0.202-2.624,0.349-4,0.411
			c-1.424,0.069-2.792,0.104-4.107,0.104c-2.878,0-5.156-0.098-6.767-0.286c-1.478-0.174-2.587-0.537-3.274-1.074
			c-0.717-0.593-1.165-1.418-1.363-2.534c-0.224-1.228-0.336-3.014-0.336-5.303v-50.66c0-1.064,0.199-2.037,0.605-2.979
			c0.357-0.819,1.022-1.392,2.032-1.737c0.698-0.244,1.829-0.517,3.367-0.824c1.559-0.311,2.83-0.484,3.773-0.523l0.77-0.027v-5.338
			h-33.828v5.311l0.733,0.055c0.937,0.07,2.126,0.308,3.541,0.698c1.424,0.384,2.54,0.781,3.344,1.2
			c1.036,0.479,1.729,1.104,2.056,1.836c0.366,0.819,0.553,1.775,0.553,2.864v54.007c0,1.24-0.211,2.26-0.63,3.021
			c-0.399,0.733-1.04,1.276-1.966,1.676c-0.388,0.173-1.258,0.424-3.179,0.627c-1.626,0.182-2.864,0.3-3.719,0.363l-0.733,0.063
			v5.304h61.213l1.732-24.02h-5.232L1387.274,511.121z"/>
		<path d="M1499.07,528.76c-1.566-0.286-2.645-0.593-3.217-0.9c-1.066-0.558-1.785-1.199-2.135-1.896
			c-0.372-0.727-0.561-1.661-0.561-2.771v-54.384c0-1.057,0.195-2.041,0.581-2.92c0.338-0.789,0.994-1.344,2.005-1.692
			c0.679-0.233,1.787-0.499,3.295-0.771c1.533-0.273,2.789-0.43,3.74-0.469l0.764-0.027v-5.338h-26.446l-0.043,0.754
			c-0.023,0.397-0.172,1.354-0.756,3.648c-0.479,1.877-1.058,3.682-1.717,5.359l-17.927,45.469l-21.138-54.722l-0.195-0.509h-27.378
			v5.331l0.759,0.034c1.511,0.07,3.058,0.332,4.606,0.775c1.495,0.426,2.769,1.086,3.782,1.953c0.899,0.793,1.602,1.85,2.095,3.141
			c0.501,1.313,0.756,3.061,0.756,5.191v38.588c0,4.746-0.229,8.151-0.68,10.146c-0.422,1.863-1.197,3.252-2.303,4.124
			c-0.867,0.697-2.143,1.234-3.787,1.598c-1.75,0.378-3.429,0.644-4.99,0.775l-0.723,0.068v5.298h32.424v-5.325l-0.756-0.041
			c-0.478-0.021-1.674-0.224-4.675-1.032c-2.909-0.79-4.084-1.487-4.585-1.962c-1.017-0.88-1.789-2.386-2.3-4.479
			c-0.541-2.184-0.815-5.464-0.815-9.748v-42.521l23.971,63.37l0.192,0.517h3.775l25.521-62.97v52.769
			c0,1.157-0.224,2.127-0.669,2.86c-0.447,0.747-1.177,1.438-2.144,2.023c-0.424,0.23-1.406,0.559-3.663,0.81
			c-1.89,0.202-3.451,0.327-4.645,0.363l-0.771,0.027v5.339h35.333v-5.331l-0.767-0.035
			C1501.961,529.213,1500.673,529.053,1499.07,528.76z"/>
		<path d="M1595.075,528.718c-1.249-0.321-2.265-0.712-2.983-1.145c-1.141-0.761-2.044-1.542-2.679-2.329
			c-0.622-0.781-1.197-1.828-1.707-3.141l-25.451-65.066l-0.195-0.506h-5.392l-0.198,0.502c-3.625,9.215-7.749,19.721-12.378,31.526
			c-4.575,11.678-8.848,22.399-12.696,31.89c-0.717,1.752-1.459,3.154-2.21,4.151c-0.732,0.972-1.79,1.913-3.13,2.813
			c-0.821,0.518-1.899,0.936-3.204,1.257c-1.362,0.32-2.497,0.522-3.37,0.579l-0.736,0.063v5.304h30.349v-5.325l-0.756-0.041
			c-2.749-0.132-5.243-0.587-7.42-1.333c-1.896-0.662-2.856-1.515-2.856-2.541c0-0.557,0.088-1.297,0.258-2.197
			c0.172-0.921,0.49-2.143,0.944-3.622c0.5-1.556,1.065-3.251,1.691-5.093c0.582-1.703,1.333-3.699,2.239-5.945h25.714l6.137,16.404
			c0.122,0.301,0.216,0.656,0.275,1.041c0.066,0.424,0.094,0.767,0.094,1.06c0,0.189-0.456,0.69-2.19,1.2
			c-1.782,0.51-4.072,0.858-6.8,1.026l-0.746,0.056v5.311h33.333v-5.331l-0.76-0.035
			C1597.405,529.213,1596.342,529.041,1595.075,528.718z M1566.324,502.196h-20.636l10.243-26.301L1566.324,502.196z"/>
		<path d="M1682.896,528.718c-1.25-0.321-2.261-0.712-2.982-1.145c-1.142-0.761-2.042-1.542-2.677-2.329
			c-0.621-0.781-1.196-1.828-1.706-3.141l-25.452-65.066l-0.199-0.506h-5.39l-0.199,0.502c-3.621,9.215-7.749,19.721-12.376,31.526
			c-4.577,11.678-8.848,22.399-12.696,31.89c-0.718,1.752-1.462,3.154-2.209,4.151c-0.735,0.972-1.792,1.913-3.132,2.813
			c-0.82,0.518-1.898,0.936-3.204,1.257c-1.363,0.32-2.497,0.522-3.369,0.579l-0.736,0.063v5.304h30.347v-5.325l-0.754-0.041
			c-2.749-0.132-5.243-0.587-7.421-1.333c-1.898-0.662-2.857-1.515-2.857-2.541c0-0.557,0.087-1.297,0.259-2.197
			c0.171-0.921,0.491-2.143,0.945-3.622c0.499-1.556,1.067-3.251,1.691-5.093c0.58-1.703,1.333-3.699,2.236-5.945h25.714
			l6.142,16.404c0.122,0.301,0.213,0.656,0.272,1.041c0.065,0.424,0.098,0.767,0.098,1.06c0,0.189-0.462,0.69-2.191,1.2
			c-1.786,0.51-4.072,0.858-6.804,1.026l-0.746,0.056v5.311h33.333v-5.331l-0.761-0.035
			C1685.228,529.213,1684.163,529.041,1682.896,528.718z M1654.146,502.196h-20.633l10.24-26.301L1654.146,502.196z"/>
		<path d="M1697.407,479.653h5.167l0.161-0.582c0.311-1.117,0.876-2.568,1.679-4.32c0.802-1.744,1.741-3.411,2.791-4.965
			c1.032-1.531,2.183-2.934,3.423-4.158c1.137-1.12,2.222-1.748,3.224-1.873c1.423-0.168,2.996-0.287,4.664-0.343
			c1.64-0.048,3.011-0.077,4.117-0.077h2.328v60.018c0,1.285-0.241,2.311-0.706,3.05c-0.467,0.719-1.221,1.284-2.246,1.689
			c-0.694,0.278-2.06,0.537-4.055,0.746c-2.052,0.203-3.575,0.349-4.574,0.412l-0.742,0.056v5.311h37.646v-5.339l-0.771-0.027
			c-1.1-0.036-2.675-0.259-4.678-0.671c-2.027-0.418-3.354-0.752-3.918-0.97c-1.089-0.459-1.822-1.073-2.236-1.884
			c-0.451-0.871-0.668-1.807-0.668-2.854v-59.537h2.331c1.432,0,2.982,0.035,4.661,0.105c1.703,0.072,3.057,0.182,4.124,0.314
			c1.013,0.146,2.107,0.777,3.262,1.877c1.226,1.182,2.373,2.574,3.42,4.154c1.016,1.518,1.947,3.158,2.773,4.875
			c0.819,1.688,1.392,3.168,1.702,4.389l0.151,0.604h5.129v-22.061h-68.158V479.653z"/>
		<path d="M1832.829,498.672c-1.504-1.599-3.308-3.021-5.365-4.236c-2.018-1.186-4.142-2.254-6.306-3.175
			c-2.436-1.058-4.926-2.041-7.393-2.924c-2.471-0.876-5.041-1.954-7.652-3.183c-2.809-1.325-4.971-3.014-6.42-5.037
			c-1.434-1.996-2.162-4.564-2.162-7.641c0-2.91,1.095-5.308,3.343-7.328c2.274-2.041,4.95-3.035,8.185-3.035
			c3.084,0,5.704,0.586,7.794,1.734c2.111,1.154,3.93,2.738,5.395,4.689c1.528,2.051,2.784,4.382,3.744,6.932
			c0.976,2.59,1.863,5.338,2.642,8.168l0.159,0.583h5.774l-0.456-26.628h-5.537l-2.024,3.328c-2.155-1.277-4.528-2.406-7.065-3.377
			c-2.851-1.096-6.122-1.646-9.727-1.646c-3.168,0-6.246,0.543-9.154,1.618c-2.919,1.075-5.486,2.582-7.624,4.479
			c-2.258,2.01-4.022,4.326-5.248,6.895c-1.229,2.575-1.852,5.395-1.852,8.371c0,5.152,1.259,9.398,3.742,12.627
			c2.46,3.195,5.942,5.805,10.338,7.759c2.188,0.987,4.83,2.058,7.854,3.167c3.008,1.117,5.674,2.122,8.005,3.044
			c3.233,1.276,5.701,3.173,7.32,5.624c1.628,2.469,2.451,5.164,2.451,8.003c0,1.962-0.265,3.712-0.787,5.191
			c-0.513,1.46-1.313,2.757-2.373,3.831c-1.05,1.075-2.46,1.926-4.187,2.52c-1.748,0.614-3.846,0.915-6.226,0.915
			c-3.157,0-5.961-0.594-8.337-1.773c-2.397-1.193-4.52-2.819-6.295-4.815c-1.913-2.156-3.473-4.521-4.637-7.005
			c-1.177-2.519-2.22-5.388-3.105-8.527l-0.161-0.579h-5.784l0.802,27.43h5.527l2.146-3.594c2.375,1.348,5.167,2.514,8.313,3.477
			c3.465,1.067,6.985,1.605,10.457,1.605c7.55,0,13.973-2.24,19.085-6.679c5.146-4.458,7.752-10.209,7.752-17.082
			c0-2.875-0.405-5.441-1.204-7.633C1835.774,502.569,1834.519,500.521,1832.829,498.672z"/>
		<path d="M1919.705,512.606c-0.838,2.269-1.93,4.389-3.244,6.309c-1.315,1.92-2.862,3.664-4.582,5.15
			c-1.706,1.424-3.764,2.581-6.112,3.461c-2.338,0.865-4.94,1.306-7.729,1.306c-3.719,0-7.124-0.832-10.132-2.457
			c-3.024-1.646-5.681-3.956-7.881-6.86c-2.23-2.965-3.972-6.455-5.174-10.367c-1.208-3.924-1.818-8.313-1.818-13.036
			c0-5.366,0.587-10.292,1.744-14.644c1.148-4.315,2.753-7.91,4.762-10.688c2.108-2.871,4.627-5.065,7.487-6.52
			c2.868-1.462,6.013-2.203,9.341-2.203c2.89,0,5.484,0.653,7.718,1.941c2.257,1.305,4.236,3.133,5.882,5.438
			c1.491,2.065,2.813,4.62,3.927,7.596c1.133,3.028,1.991,5.865,2.553,8.427l0.137,0.627h5.861l-0.518-28.494h-5.528l-2.027,3.336
			c-2.606-1.508-5.367-2.701-8.211-3.56c-3.102-0.942-6.611-1.423-10.442-1.423c-5.138,0-10.04,0.99-14.563,2.938
			c-4.525,1.95-8.498,4.752-11.828,8.328c-3.355,3.611-6.011,7.965-7.898,12.951c-1.894,4.972-2.851,10.596-2.851,16.695
			c0,6.092,0.978,11.653,2.906,16.537c1.927,4.879,4.554,9.071,7.801,12.47c3.295,3.398,7.117,6.035,11.363,7.836
			c4.261,1.815,8.772,2.729,13.405,2.729c7.146,0,13.402-1.662,18.6-4.941c5.21-3.28,9.438-8.793,12.571-16.391l0.286-0.704
			l-5.505-2.611L1919.705,512.606z"/>
		<path d="M1991.658,462.903l0.736,0.055c0.967,0.07,2.121,0.28,3.438,0.618c1.325,0.343,2.46,0.733,3.391,1.176
			c0.97,0.446,1.658,1.062,2.041,1.835c0.416,0.838,0.618,1.738,0.618,2.757v22.058h-34.301v-22.592
			c0-1.064,0.188-2.044,0.562-2.934c0.318-0.782,0.966-1.33,1.971-1.679c0.682-0.233,1.735-0.499,3.145-0.771
			c1.42-0.273,2.619-0.43,3.566-0.469l0.767-0.027v-5.338h-33.288v5.311l0.735,0.055c0.963,0.07,2.122,0.28,3.44,0.618
			c1.315,0.335,2.453,0.733,3.393,1.176c0.966,0.446,1.652,1.062,2.04,1.829c0.415,0.85,0.617,1.75,0.617,2.763v54.435
			c0,1.229-0.216,2.227-0.647,2.973c-0.417,0.719-1.059,1.243-2.014,1.619c-0.356,0.167-1.186,0.405-3.092,0.566l-4.473,0.376v5.304
			h33.288v-5.331l-0.761-0.035c-0.879-0.036-2.075-0.209-3.563-0.51c-1.846-0.385-2.675-0.684-3.045-0.88
			c-1.061-0.558-1.765-1.192-2.104-1.884c-0.354-0.731-0.537-1.667-0.537-2.783v-25.468h34.301v26.053
			c0,1.229-0.217,2.227-0.646,2.973c-0.415,0.719-1.057,1.243-2.02,1.619c-0.354,0.167-1.177,0.397-3.089,0.566l-4.47,0.376v5.304
			h33.285v-5.331l-0.761-0.035c-0.874-0.036-2.072-0.209-3.563-0.51c-1.846-0.385-2.675-0.684-3.045-0.88
			c-1.058-0.558-1.769-1.192-2.1-1.884c-0.357-0.731-0.542-1.674-0.542-2.783v-54.384c0-1.057,0.188-2.044,0.563-2.934
			c0.32-0.782,0.967-1.33,1.971-1.679c0.678-0.233,1.736-0.499,3.144-0.771c1.423-0.273,2.624-0.43,3.569-0.469l0.764-0.027v-5.338
			h-33.285V462.903z"/>
		<path d="M2116.85,528.718c-1.249-0.321-2.264-0.712-2.981-1.145c-1.142-0.761-2.046-1.542-2.677-2.329
			c-0.624-0.781-1.196-1.828-1.709-3.141l-25.452-65.066l-0.196-0.506h-5.391l-0.197,0.502c-3.626,9.215-7.75,19.721-12.38,31.526
			c-4.574,11.678-8.845,22.399-12.693,31.89c-0.718,1.752-1.461,3.154-2.212,4.151c-0.733,0.972-1.789,1.913-3.129,2.813
			c-0.819,0.518-1.898,0.936-3.204,1.257c-1.363,0.32-2.497,0.522-3.37,0.579l-0.736,0.063v5.304h30.348v-5.325l-0.757-0.041
			c-2.746-0.132-5.245-0.587-7.418-1.333c-1.897-0.662-2.857-1.515-2.857-2.541c0-0.557,0.087-1.297,0.259-2.197
			c0.171-0.921,0.492-2.143,0.945-3.622c0.499-1.556,1.064-3.251,1.688-5.093c0.582-1.703,1.336-3.699,2.239-5.945h25.714
			l6.142,16.404c0.119,0.301,0.213,0.656,0.271,1.041c0.066,0.424,0.099,0.767,0.099,1.06c0,0.189-0.462,0.69-2.191,1.2
			c-1.786,0.51-4.075,0.858-6.804,1.026l-0.746,0.056v5.311h33.333v-5.331l-0.761-0.035
			C2119.182,529.213,2118.117,529.041,2116.85,528.718z M2088.101,502.196h-20.637l10.243-26.301L2088.101,502.196z"/>
		<path d="M2188.896,462.836c-4.554-3.479-10.537-5.244-17.78-5.244h-35.669v5.311l0.733,0.055c0.957,0.07,2.094,0.203,3.423,0.398
			c1.276,0.182,2.597,0.499,3.894,0.942c1.109,0.415,1.787,0.987,2.062,1.758c0.328,0.894,0.492,1.927,0.492,3.071v54.436
			c0,1.24-0.213,2.26-0.631,3.021c-0.398,0.733-1.04,1.276-1.964,1.676c-0.388,0.173-1.261,0.424-3.182,0.627
			c-1.627,0.182-2.862,0.3-3.718,0.363l-0.731,0.063v5.304h34.362v-5.346l-0.773-0.021c-1.33-0.036-2.817-0.161-4.413-0.363
			c-1.944-0.251-2.835-0.489-3.231-0.642c-1.101-0.427-1.795-0.99-2.114-1.73c-0.367-0.831-0.552-1.821-0.552-2.951v-22.065h7.759
			c3.713,0,7.283-0.472,10.6-1.409c3.34-0.939,6.449-2.449,9.236-4.477c2.851-2.045,5.114-4.668,6.73-7.805
			c1.607-3.127,2.428-6.762,2.428-10.809C2195.855,471.129,2193.514,466.36,2188.896,462.836z M2159.103,463.543h6.793
			c2.913,0,5.369,0.44,7.313,1.32c1.908,0.857,3.468,2.075,4.64,3.628c1.117,1.473,1.908,3.218,2.362,5.178
			c0.471,2.023,0.709,4.037,0.709,5.983c0,1.399-0.191,2.998-0.573,4.749c-0.369,1.702-1.142,3.384-2.302,5.003
			c-1.139,1.654-2.871,3.063-5.158,4.18c-2.292,1.123-5.354,1.695-9.091,1.695h-4.693V463.543z"/>
		<path d="M2269.993,462.836c-4.553-3.479-10.537-5.244-17.779-5.244h-35.669v5.311l0.732,0.055c0.957,0.07,2.094,0.203,3.424,0.398
			c1.276,0.182,2.596,0.499,3.896,0.942c1.109,0.415,1.783,0.987,2.059,1.758c0.327,0.894,0.491,1.927,0.491,3.071v54.436
			c0,1.24-0.212,2.26-0.63,3.021c-0.398,0.733-1.037,1.276-1.965,1.676c-0.388,0.173-1.26,0.424-3.179,0.627
			c-1.625,0.182-2.864,0.3-3.72,0.363l-0.731,0.063v5.304h34.363v-5.346l-0.771-0.021c-1.333-0.036-2.82-0.161-4.419-0.363
			c-1.938-0.251-2.829-0.489-3.229-0.642c-1.1-0.427-1.789-0.99-2.114-1.73c-0.363-0.831-0.551-1.821-0.551-2.951v-22.065h7.759
			c3.717,0,7.286-0.472,10.6-1.409c3.339-0.939,6.448-2.449,9.236-4.477c2.851-2.045,5.114-4.668,6.729-7.805
			c1.613-3.127,2.428-6.762,2.428-10.809C2276.953,471.129,2274.612,466.36,2269.993,462.836z M2240.201,463.543h6.792
			c2.913,0,5.373,0.44,7.313,1.32c1.908,0.857,3.472,2.075,4.644,3.628c1.114,1.473,1.908,3.218,2.363,5.178
			c0.466,2.023,0.704,4.037,0.704,5.983c0,1.399-0.191,2.998-0.572,4.749c-0.37,1.702-1.142,3.391-2.299,5.003
			c-1.139,1.654-2.875,3.063-5.158,4.18c-2.296,1.123-5.358,1.695-9.092,1.695h-4.695V463.543z"/>
		<path d="M2296.998,462.903l0.74,0.055c1.019,0.07,2.326,0.294,3.886,0.65c1.598,0.365,2.924,0.756,3.953,1.161
			c1.246,0.485,2.065,1.071,2.366,1.7c0.341,0.718,0.517,1.652,0.517,2.77v54.645c0,1.248-0.228,2.218-0.674,2.874
			c-0.444,0.664-1.187,1.194-2.206,1.585c-0.672,0.258-1.9,0.453-3.649,0.594l-4.933,0.376v5.304h35.975v-5.339l-0.771-0.027
			c-1.135-0.036-2.551-0.218-4.204-0.545c-1.64-0.32-2.841-0.621-3.527-0.878c-1.105-0.468-1.854-1.062-2.286-1.822
			c-0.446-0.774-0.673-1.689-0.673-2.707v-54.592c0-1.044,0.209-1.996,0.617-2.845c0.369-0.757,1.11-1.298,2.268-1.657
			c1.1-0.338,2.418-0.624,3.915-0.848c1.521-0.23,2.833-0.359,3.895-0.398l0.767-0.021v-5.345h-35.975V462.903z"/>
		<path d="M2370.022,457.592v5.311l0.739,0.055c1.05,0.07,2.404,0.259,4.031,0.549c1.583,0.286,2.913,0.701,3.963,1.238
			c1.123,0.545,1.863,1.168,2.191,1.842c0.363,0.727,0.54,1.654,0.54,2.757v39.921c0,3.266-0.171,6.273-0.51,8.932
			c-0.323,2.604-0.871,4.822-1.635,6.607c-0.769,1.828-1.935,3.315-3.473,4.41c-1.519,1.082-3.524,1.634-5.964,1.634
			c-2.546,0-4.58-0.411-6.045-1.229c-1.322-0.739-2.342-1.577-3.028-2.505c0.282-0.747,0.697-1.563,1.241-2.436
			c0.682-1.095,1.284-2.045,1.829-2.859c0.597-0.93,1.145-1.982,1.629-3.163c0.5-1.214,0.754-2.463,0.754-3.704
			c0-2.177-0.746-3.957-2.227-5.297c-1.447-1.318-3.37-1.981-5.726-1.981c-2.672,0-4.74,1.054-6.147,3.134
			c-1.339,1.995-2.02,4.305-2.02,6.858c0,5.708,1.927,10.313,5.729,13.698c3.778,3.363,8.744,5.066,14.762,5.066
			c3.858,0,7.345-0.705,10.367-2.1c3.018-1.383,5.647-3.351,7.821-5.826c1.888-2.108,3.342-4.558,4.326-7.272
			c0.98-2.701,1.479-5.303,1.479-7.717v-44.705c0-1.064,0.192-2.044,0.572-2.92c0.346-0.789,1.005-1.344,2.01-1.692
			c0.99-0.335,2.219-0.621,3.655-0.849c1.463-0.223,2.691-0.352,3.646-0.391l0.764-0.027v-5.338H2370.022z"/>
	</g>
	<g>
		<polygon fill="#EC671A" points="509.919,335.826 509.919,420.334 534.011,420.334 534.011,393.917 572.475,432.377 
			534.011,471.08 534.011,444.424 509.919,444.424 509.919,528.921 606.458,432.377 		"/>
		<polygon fill="#EC671A" points="722.152,528.921 722.152,444.424 698.058,444.424 698.058,470.85 659.59,432.377 698.058,393.682 
			698.058,420.334 722.152,420.334 722.152,335.833 625.567,432.377 		"/>
		<polygon fill="#EC671A" points="712.581,326.265 628.081,326.265 628.081,350.361 654.477,350.361 616.03,388.82 577.348,350.361 
			603.969,350.361 603.969,326.265 519.469,326.265 616.03,422.827 		"/>
		<polygon fill="#EC671A" points="519.469,538.495 603.969,538.495 603.969,514.4 577.563,514.4 616.042,475.94 654.709,514.4 
			628.084,514.4 628.084,538.495 712.581,538.488 616.042,441.934 		"/>
	</g>
</g>
</svg>
